<svg width="18" height="18" viewBox="0 0 18 18" fill="none" xmlns="http://www.w3.org/2000/svg">
<path fill-rule="evenodd" clip-rule="evenodd" d="M8.99961 0.599976C9.66235 0.599976 10.1996 1.13723 10.1996 1.79998L10.1996 7.79998L16.1996 7.79998C16.8624 7.79998 17.3996 8.33723 17.3996 8.99998C17.3996 9.66272 16.8623 10.2 16.1996 10.2H10.1996V16.2C10.1996 16.8627 9.66235 17.4 8.99961 17.4C8.33687 17.4 7.79961 16.8627 7.79961 16.2L7.79961 10.2L1.79961 10.2C1.13687 10.2 0.599609 9.66272 0.599609 8.99997C0.599609 8.33723 1.13687 7.79997 1.79961 7.79997L7.79961 7.79998L7.79961 1.79998C7.79961 1.13723 8.33687 0.599976 8.99961 0.599976Z" fill="#1D1E25"/>
</svg>
